<?xml version="1.0" encoding="UTF-8"?>
<svg id="Ebene_1" xmlns="http://www.w3.org/2000/svg" version="1.1" viewBox="0 0 500 647.81" fill="var(--svg-color)" stroke="var(--svg-color)">
  <!-- Generator: Adobe Illustrator 29.1.0, SVG Export Plug-In . SVG Version: 2.1.0 Build 142)  -->
  <g id="Hintergrund_xA0_Image">
    <path d="M201.93,375.26c-.8-.8-2.61-2.64-1.41-7.61,1.56-6.43,5.42-5.13,5.42-5.13"/>
    <path d="M313.82,364.08c.13-.38.54-.59.91-.45.57.22,1.9.82,2.13,2.39.32,2.29.19,2.92.21,4.24,0,.2-.66.91-1.33.11-.58-.69-.97-2.44-1.15-3.08-.24-.9-1.29-1.66-.76-3.21h-.01Z"/>
  </g>
  <g id="Ebene_12_xA0_Image">
    <g>
      <path d="M199.78,509.74c-4.03-6.03-9.16-10.92-11.99-17.57-.43-1.02-1.35-1.83-2.97-1.66-1.91.2-4.08,12.66-5.19,19.25-5.19,23.62.46,47.69-2.57,71.21-18.29-22.56-22.41-55.18-30.54-82.98-4.82-17.41,1.45-34.93,5.9-51.8-17.51,2.42-34.47,4.77-51.43,7.11-.21.43-.42.86-.63,1.29,8.16,7.49,17.55,13.58,25.87,20.96-14.32-3.47-25.78-12.02-37.62-20.69-19.63,3.13-39.73,4.01-59.92,4.09,15.93-7.79,33.18-10.32,50.66-13.11-21.74-31.12-22.29-52.03-19.18-89.14,3.71-40.37,11.12-80.39,9.99-121.09.78-27.59-2.61-56.34,7.34-82.68,12.13-25.77,20.25-55.44,44.46-72.58,17.87-14.82,31.6-11.29,51.73-3.62,5.75-40.65,38.68-42,72.72-38.72,24.37,4.26,46.69,18.73,64.54,35.25,21.84,17.19,45.65,32.23,62.47,54.73,9.38,11.88,18.21,25.19,18.84,40.97.18,2.03.64,4.24-1.24,6.18-6.76-12.19-6.65-26.69-17.03-37.46-28.1-33.72-63.63-60.78-100.95-83.47-13.61-6.42-27.27-13.5-43.28-11.9-8,.8-16.09-.52-24.15.8-20.92,4.92-29.2,27.39-28.14,46.24-4.43-.92-3.57-4.38-4.63-7.39-10.06-1.43-19.81-6.64-30.55-3.84-35.51,10.73-47.02,49.44-60.85,79.93-8.27,30.27-4.85,61.39-5.26,92.32-.57,34.09-7.23,67.73-9.6,101.74-2.37,32.75.06,68.37,24.05,93.07,21.17-3.47,42.52-4.2,64.15-5.23,23.35-54.77,39.16-14.39-7.12-68.21-5.9-7.81-11.01-15.83-13.48-26.06-1.52-6.27-7.49-6.81-9.73-9.05-16.45-16.45-15.61-18.62-22.28-32.94-7.78-16.71-15.44-52.69,2.48-55.7-2.63-18.15,4.86-35.26,14.59-50.45,9.87-11.09,19.81-22.38,30.66-32.47,8.61-8.5,18.12-16.15,26.28-25.03,6.71-5.73,9.93-14.48,16.98-19.8,1.57,10.94-10.54,21.09-15.99,29.72-25.39,30.74-71.85,59.96-66.07,105.3-.85.35-4.31-2.79-8.56.21-3.83,4.43-1.79,11.46-1.73,17.3,1.54,22.68,12.7,41.16,20.88,53.42,3.39,5.07,7.93,8,9.51,7.82-3.84-28.44-15.85-55.91-16.74-84.51.82-6.41,2-12.79,1.83-19.31-.05-1.68-.26-3.59,1.83-4.59,4.38,1.3,2.4,14.81,1.86,18.73-2.49,9.75-.45,19.05,2.08,28.75,8.01,30.75,10.34,57.04,22.92,84.64,7.95,13.11,20.56,23.21,30.81,34.62,12.67,13.13,24.07,27.67,40.26,37.01,23.85,11.43,50.81,5.09,76.24,6.61,12.13-1.16,37.85-38.01,43.99-49.18,13.25-21.6,11.05-36.36,19.77-67.98,5.98-21.71,11.52-45.65,7.31-68.11-4.16-22.2-4.62-47.01-12.16-68.56-1.05-2.67-.82-5.5-1.31-8.84-45-7.5-93.27-12.92-131.83-39.16-6.5-6-21.33-11.13-22.63-20.35,2.51-1.79,4.12-.11,5.7.68,16.62,8.68,30.98,21.44,49.59,26.13,38.74,16.62,82.1,18.37,121.32,32.72,63.49,24.3,36.54,57.04,39,108.73-3.75-.63-6.18-11.18-6.03-15.77,1.83-54.19,20.27-69.06-51.34-91.53,14.61,36.49,25.06,74.79,38.85,111.7,14.62,40.22,28.67,70.68,72.51,84.29-.84,1.56-2.18.97-3.22.94-30.43.32-51.47-23.18-61.91-49.73-14.65-29.89-23.41-61.34-33.14-93.14-.68,1.38-.51,5.77-.09,7.37,4.99,19.17,2.7,55.44-7.04,89.19-5.41,18.76-5.55,31.32-11.4,49.95-2.94,9.37-10.37,16.47-9.45,27.4-.01,3.12-.28,6.27-1.15,9.08,11.2,8.92,18.64,20.66,27.6,31.08,7.43,7.99,10.83,21.3,21.88,24.95,23.68,11.85,47.75,23.68,68.22,40.73,5.27,3.86.12,9.59-4.72,6.27-22.38-11.45-42.23-27.73-63.73-40.84-.79.51-.69,1.13-.25,1.76,12.26,19.96,21.97,41.73,28.13,64.32,1.39,6.63,2.13,13.4,3.76,20.01.37,1.51.45,3.2-1.85,4.25-5.24-5.4-9.58-11.55-12.49-18.67-6.52-18.47-31.28-45.54-46.42-18.46-8.44,15.18.34,40.45-8.18,48.71-10.44,2.88-19.63,4.18-29.47,7.63-8.34,2.92-17.1,4.8-25.55,6.91-2.23.56-4.52-.04-6.4-1.76-.27-7.4,11.86-9.19,17.54-11.15,13.15-2.77,26.08-7.4,39.09-10.72.36-1.51.96-6.62.86-7.97-1.02-13.94.22-23.84,4.75-37.07,7.63-19.12,35.49-18.61,47.92-4.01-14.05-36.01-35.26-67.41-60.83-96.11-1.8,12.24-1.17,26.09-2.26,38.85,5.17,13.31,12.69,25.89,12.61,40.93,2.13,28.38-34.01,46.96-52.95,63.13-11.34,9.9-23.57,19.04-31.29,32.12-1.33,3-4.29,4.22-7.6,5.53,1.44-16.06,14.6-17.17,8.91-37.49-3.83-16.78-21.61-20.9-34.08-29.32-15.86-9.84-31.02-25.64-31.02-25.64l-.03-.02ZM341.49,500.87c-1.15-8.11-4.53-16.73-7.3-23.62-1.55,6.42.21,18.95-3.94,21.58-2.59-5.36-3.42-26.76-2.59-46.72.65-15.61.63-31.25,3.95-46.73-2.01-.03-2.28.91-2.73,1.62-7.52,11.81-15.35,23.38-26.12,32.58-2.68,2.29-5.64,4.52-9.22,4.65-12.06.43-23.95,3.17-36.12,2.3-6.46-.46-12.98-.08-19.48-.11-1.57,0-3.15.1-4.67-.53-13.29-5.45-25.48-12.5-35.37-23.21-4.16-4.5-8.24-9.21-13.76-12.51-1.08,3.77.23,6.99.66,10.25,2.22,16.79,2.77,33.74,5.28,50.52,1.8,12.07,6.04,22.78,13.56,32.52,5.99,7.76,15.5,18.42,33.54,29.31,6.19,3.74,12.73,6.75,18.56,11.27,9.81,7.29,14.48,17,16.91,28.75,14.37-18.47,36.09-27.35,53.96-42.09,8.98-8.85,16.73-16.65,14.87-29.82h.01ZM164.86,436.34c-2.72,6.05-5.45,12.11-7.28,18.49-3.17,11.02-3.16,22.41-3.1,33.7.02,4.06.32,8.38,1.34,12.39,2.49,9.74,5.03,19.51,8.22,29.03,1.65,4.94,1.4,10.47,4.75,15.92.17-1.65.28-2.29.29-2.92.33-18.35,1.21-36.59,8.29-53.95,1.65-4.05,3.37-7.5,7.74-8.5-4.85-21.35-2.55-43.18-6.95-65.12-5.33,6.9-11.98,11.74-13.3,20.95h0Z"/>
      <path d="M279.8,202.1c13.19-4.29,29.08,6.94,41.53,14.83,6.88,4.36,9.28,4.75,17.31,10,1.99,1.3,6.22,3.43,6.16,5.64-1.36,1.77-4.04-.07-5.79-.74-11.32-4.28-18.62-7.06-29.49-13.42-5.62-3.29-8.8-4.34-14.08-6.56-1.95-.82-6.62-2.71-9.97-1.21-3.98,1.78-6.96,3.19-11.15,4.37-2.92.82-7.65,2.24-8.58-1.5-.77-3.1.93-5.65,4.13-6.99,3.22-1.35,6.16-3.32,9.94-4.43h-.01Z"/>
      <path d="M177.57,187.01c9.86.54,19.78,5.96,27.26,10.71,5.89,3.74,10.78,8.7,15.97,13.28.84.74,1.19,1.7.93,2.94-1.64,2.43-5.29,1.02-7.09.19-7.74-3.56-15.23-11.53-25.63-16.31-10.37-6.74-23.67-5.61-33.96,1.81-3.73,2.69-6.82,8.52-11.37,10.66-.55.26-1.13-.24-.96-.82,3.81-12.86,19.97-22.48,34.84-22.46h.01Z"/>
      <path d="M230.51,281.56c-1.56-15.75.11-32.24,3.5-35.29,1.49,1.24.89,2.92.77,4.36-1.3,15.36-1.97,30.64,1,45.96,1.74,8.98-2.3,17.51-3.59,26.27-.58,3.9-1.4,7.86-.38,11.73,2.08,1.05,4.05.9,5.9.56,9.59-1.81,19.2-1.5,28.77-.22,5.65.76,10.27-1.32,14.75-4.14,1.1-.69,2.01-1.35,3.59-.76.95,1.83.76,3.79.1,5.64-8.19,5.83-17.01,6.97-26.57,5.26-6.39-1.14-12.94-.78-19.42-.28-2.81.22-5.53.2-8.12-1.33-3.28-1.93-4.57-4.47-3.83-8.3.98-5.13,2.91-9.97,3.88-15.14,1.67-8.9.93-17.72.45-26.56-.13-2.4-.55-4.84-.78-7.76h-.02Z"/>
      <path d="M198.04,262.65c-1.04,7.71-3.83,10.27-10.91,10.4-2.62.05-5.25,0-8.62,0-4.33-2.44-6.99-6.94-8.53-12.58-4.86,2.14-6.75,6.09-6.95,10.69,0,.09-.05.17-.12.21-1.37.85-2.48.78-3.51.49-.4-.11-.72-.44-.81-.85-1.31-6.13-.25-7.33,5.33-11.28,3.49-2.47,7.23-4.08,10.99-5.9,5.39-2.61,10.79-2.44,16.27-.75,4.33,1.34,8.64,2.82,12.85,4.5,2.01.8,4.16,1.67,6,3.93-2.93,1.43-5.07-.42-7.29-.53-4.49-.64-3.8-1.79-4.69,1.66h-.01Z"/>
      <path d="M286.35,259.24c-1.64,1.26-3.04,1.41-4.79.75,12.63-13.24,27.85-14.21,43.98-9.8,3.52.96,8.38,1.69,9.37,7.39-5.98,2.46-8.86-4.76-14.59-3.63-2.82,2.36-1.39,8.09-6.05,10.5-3.33.35-6.99.18-10.62.98-4.87,1.09-6.41-3.14-8.64-6.06-.58-.77-.28-2.07-1.49-3.05-2.52-.19-4.45,1.95-7.19,2.92h.02Z"/>
      <path d="M373.34,339.6c-.24-4.96-2.25-9.37-1.27-14.26,10.18,26.62,27.68,48.19,46.25,69.04-16.27-6.85-38.31-32.13-44.97-54.78h-.01Z"/>
      <path d="M268.53,370.73c6.57-2.09,12.72-1.07,18.88.14,3.99.79,7.89,2.64,11.96-.65,1.04-.84,4.01-2.44,6.2-.41-2.41,4.86-6.01,6.79-10.75,5.67-3.56-.85-7.2-1.58-10.59-2.92-5.55-2.19-10.58-1.7-15.29,1.86-3.5,2.65-7.15,3.35-11.21,1.44-4.66-2.19-8.52.19-12.3,2.38-9.46,5.48-18.74,3.98-27.92-.58-2.34-1.16-4.63-2.7-3.42-5.99,1.81-1.11,3.65-1.05,5.09-.01,3.5,2.51,7.79,2.94,11.52,4.67,6.31,2.94,11.47,1.31,16.4-2.76,2.88-2.37,5.81-4.34,9.92-3.74,2.61.38,4.13,2.52,6.24,3.33,2.01-.27,3.4-1.38,5.26-2.43h.01Z"/>
      <path d="M329.34,249.31s-.05,0-.07-.01c-9.3-2.98-18.17-5.87-27.12-8.52-4.77-1.41-7.31-.6-15.5,4.02-.19.11-.44,0-.47-.22-.44-2.97.69-4.01,4.16-5.21,6.71-3.36,11.85-.85,17.56.25,9.87,1.91,19.84,3.78,28.95,8.35,1.8.9,4.26,1.29,4.75,4.16.04.21-.15.39-.36.37-4.06-.57-7.55-2.91-11.92-3.18h.02Z"/>
      <path d="M180.25,244.6c-6.23,1.28-11.61,4.39-17.65,4.36-.62-2.38.71-3.09,1.83-3.89,4.81-3.43,10.43-4.85,16.1-5.56,4.65-.58,9.44-.21,14.15-.07,3.61.11,6.18,1.78,7.42,6.6-7.46-2.11-14.39-3.65-21.85-1.44h0Z"/>
      <path d="M290.36,523.4c-2.75.27-1.83-2.83-.7-3.97,5.8-4.29,11.52-24.9,17.08-23.53,4.01,5.32-11.93,23.03-16.37,27.5h0Z"/>
    </g>
  </g>
</svg>